<svg width="396" height="396" viewBox="0 0 396 396" fill="none" xmlns="http://www.w3.org/2000/svg">
<path fill-rule="evenodd" clip-rule="evenodd" d="M161.625 269.375V314.271C161.625 358.861 125.403 395.083 80.8125 395.083C36.204 395.083 0 358.861 0 314.271C0 269.662 36.204 233.458 80.8125 233.458H125.708V161.625H80.8125C36.204 161.625 0 125.421 0 80.8125C0 36.222 36.204 0 80.8125 0C125.403 0 161.625 36.222 161.625 80.8125V125.708H233.458V80.8125C233.458 36.222 269.68 0 314.271 0C358.879 0 395.083 36.222 395.083 80.8125C395.083 125.421 358.879 161.625 314.271 161.625H269.375V233.458H314.271C358.879 233.458 395.083 269.662 395.083 314.271C395.083 358.861 358.879 395.083 314.271 395.083C269.68 395.083 233.458 358.861 233.458 314.271V269.375H161.625ZM125.708 269.375H80.8125C56.048 269.375 35.9167 289.524 35.9167 314.271C35.9167 339.017 56.048 359.167 80.8125 359.167C105.577 359.167 125.708 339.017 125.708 314.271V269.375ZM314.271 269.375H269.375V314.271C269.375 339.017 289.506 359.167 314.271 359.167C339.035 359.167 359.167 339.017 359.167 314.271C359.167 289.524 339.035 269.375 314.271 269.375ZM233.458 161.625H161.625V235.829H233.458V161.625ZM125.708 125.708V80.8125C125.708 56.0659 105.577 35.9167 80.8125 35.9167C56.048 35.9167 35.9167 56.0659 35.9167 80.8125C35.9167 105.559 56.048 125.708 80.8125 125.708H125.708ZM314.271 125.708C339.035 125.708 359.167 105.559 359.167 80.8125C359.167 56.0659 339.035 35.9167 314.271 35.9167C289.506 35.9167 269.375 56.0659 269.375 80.8125V125.708H314.271Z" fill="url(#paint0_linear_7_91)" fill-opacity="0.6"/>
<defs>
<linearGradient id="paint0_linear_7_91" x1="198.042" y1="-72.9583" x2="198.042" y2="371.542" gradientUnits="userSpaceOnUse">
<stop stop-color="#CF8E80"/>
<stop offset="0.957562" stop-color="#292B57"/>
</linearGradient>
</defs>
</svg>
